<?xml version="1.0" encoding="utf-8"?>
<!-- Generator: Adobe Illustrator 22.0.0, SVG Export Plug-In . SVG Version: 6.00 Build 0)  -->
<svg version="1.1" width="195" height="37" id="Layer_1" xmlns="http://www.w3.org/2000/svg" xmlns:xlink="http://www.w3.org/1999/xlink" x="0px" y="0px" viewBox="0 0 384 130" style="enable-background:new 0 0 384 130;" xml:space="preserve">

	<path fill="#22a2e1" d="M39.8,68.3c9.1,6.5,18.3,13,27.4,19.5c0.1,0.1,0.2,0.2,0.4,0.1c0-0.1,0-0.2,0-0.3c0-7.2,0-14.3,0-21.5 c0-0.4-0.2-0.6-0.4-0.8c-2.6-1.9-5.3-3.7-7.9-5.6c-1.2-0.8-2.4-1.7-3.6-2.6c4.3-2.8,8.5-5.5,12.7-8.3C49.9,35.7,31.5,22.6,13,9.3 c0,0.9,0,1.7,0,2.6c0,6.4,0,12.8,0,19.2c0,0.4,0.1,0.7,0.5,0.9c1.1,0.8,2.2,1.6,3.3,2.4C24,39.6,31.4,44.8,38.6,50 c3.3,2.3,6.6,4.7,9.9,7.1c-0.2,0.2-0.4,0.3-0.6,0.4c-2.7,1.7-5.3,3.5-8,5.2c-0.4,0.3-0.7,0.3-1.1,0C31.2,57.3,23.6,51.9,16,46.5 c-1-0.7-2-1.4-3-2.1c0,0.2,0,0.2,0,0.3c0,7.4,0,14.8,0,22.2c0,0.4,0.2,0.6,0.5,0.8c2.8,2,5.7,4,8.5,6c0.5,0.3,0.4,0.5,0,0.8 c-3.1,2-6.2,4.1-9.4,6.1c-0.6,0.4-1.1,0.7-1.7,1.1c-0.6,0.5-0.6,0.7,0,1.1c3,2.1,5.9,4.3,8.9,6.4c15.8,11.3,31.6,22.5,47.5,33.8 c0.1,0.1,0.2,0.3,0.4,0.1c0,0,0,0,0-0.1c0-7.2,0-14.3,0-21.5c0-0.4-0.2-0.5-0.4-0.7c-1.7-1.2-3.5-2.4-5.2-3.6 C52,90.2,41.9,83,31.8,75.8c-0.7-0.5-1.4-1-2.1-1.6c3.1-2.1,6.2-4,9.2-6C39.3,67.9,39.5,68.1,39.8,68.3z M38.5,44.9 c-7.5-5.3-15-10.6-22.5-16c-0.4-0.3-0.5-0.5-0.5-1c0-3.7,0-7.4,0-11.1c0-0.2,0-0.4,0-0.7C30.8,27,46,37.8,61.3,48.7 c-1.9,1.2-3.6,2.4-5.4,3.6c-1.1,0.7-2.1,1.4-3.2,2.1c-0.4,0.2-0.6,0.2-0.9,0C47.3,51.2,42.9,48.1,38.5,44.9z M49.2,61.4 c0.8-0.5,1.7-1.1,2.5-1.6c0.3-0.2,0.5-0.2,0.8,0c4.1,2.9,8.2,5.9,12.3,8.8c0.2,0.1,0.4,0.3,0.4,0.6c0,4.1,0,8.1,0,12.3 c-7.5-5.3-14.8-10.6-22.3-15.9C45,64.2,47.1,62.8,49.2,61.4z M64.7,104.1c0.2,0.2,0.4,0.3,0.4,0.7c0,3.9,0,7.7,0,11.6 c0,0,0,0.1-0.1,0.2c-15.9-11.4-31.9-22.7-47.9-34.2c1.4-0.9,2.7-1.8,4-2.6c1.5-1,3.1-2,4.6-3c0.3-0.2,0.5-0.2,0.7,0 C39.2,85.9,52,95,64.7,104.1z M26.5,71.5c-0.3,0.2-0.4,0.1-0.7-0.1c-3.3-2.4-6.7-4.8-10-7.1c-0.2-0.1-0.3-0.3-0.3-0.6 c0-4.2,0-8.4,0-12.7c6.8,4.8,13.5,9.6,20.3,14.4C32.6,67.5,29.5,69.5,26.5,71.5z"/>
	
	<g>
		<path fill= '#0f2137' d="M157.3,42.7V93h-7.9V62l-14.2,18.6h-2.7L118.3,62v31h-7.9V42.7h2.8l20.8,27.7l20.8-27.7H157.3z"/>
		<path fill= '#0f2137' d="M176.6,38.7c1,1,1.6,2.3,1.6,3.7s-0.5,2.7-1.6,3.7c-1.1,1-2.3,1.5-3.8,1.5c-1.5,0-2.8-0.5-3.8-1.5c-1-1-1.6-2.2-1.6-3.7 s0.5-2.7,1.6-3.7c1.1-1,2.3-1.5,3.8-1.5C174.3,37.2,175.6,37.7,176.6,38.7z M176.8,93h-7.9V56.2h7.9V93z"/>
		<path fill= '#0f2137' d="M216.7,59.4c2.5,2.7,3.7,6.2,3.7,10.6v23h-7.9V71c0-2.6-0.7-4.6-2.2-6.2c-1.5-1.6-3.4-2.4-5.8-2.4c-2.4,0-4.5,0.8-6,2.4 c-1.6,1.6-2.4,3.7-2.4,6.2v22h-7.9V56.2h7.3v3.7c2.8-3,6.4-4.5,11-4.5C210.8,55.4,214.2,56.7,216.7,59.4z"/>
		<path fill= '#0f2137' d="M239,38.7c1,1,1.6,2.3,1.6,3.7s-0.5,2.7-1.6,3.7c-1.1,1-2.3,1.5-3.8,1.5c-1.5,0-2.8-0.5-3.8-1.5s-1.6-2.2-1.6-3.7 s0.5-2.7,1.6-3.7c1-1,2.3-1.5,3.8-1.5C236.7,37.2,238,37.7,239,38.7z M239.2,93h-7.9V56.2h7.9V93z"/>
		<path fill= '#0f2137' d="M302.2,59.4c2.4,2.7,3.6,6.2,3.6,10.6v23h-8V71.1c0-2.6-0.7-4.7-2.1-6.2c-1.4-1.5-3.2-2.3-5.6-2.3c-2.4,0-4.3,0.8-5.8,2.3 s-2.2,3.5-2.2,5.8V93h-7.9V71.1c0-2.5-0.7-4.6-2.1-6.2c-1.4-1.6-3.3-2.4-5.6-2.4c-2.4,0-4.3,0.8-5.8,2.4c-1.5,1.6-2.2,3.6-2.2,6.2 V93h-7.9V56.2h7.3v3.5c2.6-2.9,6.2-4.3,10.6-4.3c5.1,0,8.8,1.9,11.2,5.8c3-3.8,7.1-5.8,12.4-5.8C296.4,55.4,299.8,56.7,302.2,59.4z "/>
		<path fill= '#0f2137' d="M341.9,59.3c2.7,2.7,4.1,6.5,4.1,11.4V93h-7.3v-4.1c-2.8,3.3-6.7,5-11.8,5c-3.8,0-6.9-1-9.3-2.9c-2.3-2-3.5-4.5-3.5-7.7 c0-3.2,1.2-5.8,3.7-7.7c2.5-1.9,5.8-2.8,9.9-2.8h10.4v-2.4c0-2.6-0.7-4.5-2.1-5.9c-1.4-1.3-3.3-2-5.8-2c-3.7,0-7.1,1.8-10.2,5.5 l-4.6-4.6c3.7-5.2,8.9-7.9,15.5-7.9C335.5,55.4,339.2,56.7,341.9,59.3z M335.3,85.3c1.9-1.7,2.8-3.7,2.8-6.2v-0.7h-9.5 c-4.3,0-6.5,1.5-6.5,4.5c0,1.6,0.6,2.8,1.8,3.6c1.2,0.8,2.8,1.3,4.7,1.3C331.2,87.8,333.5,86.9,335.3,85.3z"/>
		<path fill= '#0f2137' d="M364.9,93H357V36.8h7.9V93z"/>
	</g>

</svg>
